<svg id="Layer_1" data-name="Layer 1" xmlns="http://www.w3.org/2000/svg" viewBox="0 0 500 86.75438"><defs><style>.cls-1{fill:#fff;}</style></defs><path class="cls-1" d="M44.14211,1.41573c-.0615,0-.12134.00011-.18284.00034.09874-.00036.19707.0017.29582.00194C44.21743,1.41793,44.18,1.41573,44.14211,1.41573Z" transform="translate(-0.6048 -0.77305)"/><path class="cls-1" d="M55.04765,28.30214V49.75593H66.55256l-.00135-6.43423h6.84158c-1.89625,9.81235-11.65366,16.6-24.02971,16.6-.84582,0-1.70608-.03332-2.55693-.099a33.948,33.948,0,0,1-17.74053-6.21509c-5.06029-3.83476-7.721-8.96425-7.69463-14.83394A21.90278,21.90278,0,0,1,28.9198,22.325a28.05033,28.05033,0,0,1,17.40873-6.80689c.41256-.01778.83348-.0268,1.25106-.0268A36.03229,36.03229,0,0,1,69.77832,23.6164c.313.25968.38724.314.46444.36713.03515.02411.08327.05719.44059.356l.17887.14963.23327.00008,12.97794.0045V1.31473H70.68293v6.711C65.04355,4.41422,55.40058.77339,44.14211.77305l-.18535.00034A46.39722,46.39722,0,0,0,11.24308,14.5135C4.27294,21.59925.4955,30.26586.60721,38.91687.72834,48.21837,5.21,56.88372,13.22678,63.31667a46.23059,46.23059,0,0,0,28.52305,9.68669c1.29227,0,2.6-.05313,3.88707-.15792,10.35406-.84214,19.533-3.20366,26.01717-6.67822l-.02113,2.86064H85.85545V43.33446h4.45946v29.797H82.90543v13.402h33.07351v-13.402h-7.412V43.3217h17.91626v6.43423h11.5637V28.30214ZM44.14211,1.41573c.03787,0,.07532.0022.113.00228-.09875-.00024-.19708-.0023-.29582-.00194C44.02077,1.41584,44.08061,1.41573,44.14211,1.41573Z" transform="translate(-0.6048 -0.77305)"/><path class="cls-1" d="M369.41653,18.32211h32.29966a.531.531,0,0,1,.60061.60011V28.528a.53093.53093,0,0,1-.60061.60061h-5.16285a.53053.53053,0,0,1-.60061-.60061V24.92583a.31824.31824,0,0,0-.36-.36h-6.12343a.31855.31855,0,0,0-.361.36V52.90339a.31855.31855,0,0,0,.361.36h3.12138a.53134.53134,0,0,1,.60061.60061v4.68256a.53093.53093,0,0,1-.60061.60061H378.542a.53093.53093,0,0,1-.60061-.60061V53.864a.53134.53134,0,0,1,.60061-.60061h3.12238a.31824.31824,0,0,0,.36-.36V24.92583a.31824.31824,0,0,0-.36-.36H375.54a.31824.31824,0,0,0-.36.36V28.528a.53093.53093,0,0,1-.60061.60061h-5.16285a.53093.53093,0,0,1-.60061-.60061V18.92222A.531.531,0,0,1,369.41653,18.32211Z" transform="translate(-0.6048 -0.77305)"/><path class="cls-1" d="M414.67837,29.54873A13.10658,13.10658,0,0,1,422.24366,31.68a10.95039,10.95039,0,0,1,4.3226,5.8537,29.80738,29.80738,0,0,1,.96058,8.70536q0,.60086-.66077.60061H409.03523a.31784.31784,0,0,0-.36.36,6.38816,6.38816,0,0,0,.42013,2.22146q1.49952,4.38351,6.48339,4.38276a8.73457,8.73457,0,0,0,6.7842-2.76191q.47979-.47979.90042-.11983l3.54251,3.12188a.55.55,0,0,1,.06016.84076q-4.20378,4.92345-11.8869,4.9227a13.45135,13.45135,0,0,1-7.7157-2.13121,10.88875,10.88875,0,0,1-4.35267-5.91337,23.10593,23.10593,0,0,1-1.01974-7.08451,23.55352,23.55352,0,0,1,.96058-7.14467,10.74508,10.74508,0,0,1,4.35267-5.88328A13.15737,13.15737,0,0,1,414.67837,29.54873Zm.06016,5.7038q-4.44293,0-5.7033,3.722a7.75872,7.75872,0,0,0-.36,2.4616.31819.31819,0,0,0,.36.36047h11.34644a.3189.3189,0,0,0,.361-.36047,7.75807,7.75807,0,0,0-.361-2.4616,5.21973,5.21973,0,0,0-2.10064-2.73133A6.28341,6.28341,0,0,0,414.73853,35.25253Z" transform="translate(-0.6048 -0.77305)"/><path class="cls-1" d="M444.84631,29.54873a19.75142,19.75142,0,0,1,9.96674,2.28162.813.813,0,0,1,.48029.7806v6.60371a.53134.53134,0,0,1-.60062.60061H449.589a.53023.53023,0,0,1-.59961-.60061V36.57308a.50689.50689,0,0,0-.3008-.42013,8.556,8.556,0,0,0-3.66183-.60061q-4.68357,0-5.944,3.78265a17.94646,17.94646,0,0,0-.60061,5.34333,18.21465,18.21465,0,0,0,.60061,5.403q1.26039,3.72324,5.944,3.72249a8.85845,8.85845,0,0,0,3.66183-.54045.42487.42487,0,0,0,.3008-.42013V50.14148a.53028.53028,0,0,1,.59961-.60011h5.10369a.53139.53139,0,0,1,.60062.60011v6.66438a.81177.81177,0,0,1-.48029.78009,21.27308,21.27308,0,0,1-9.96674,2.22146q-9.78677,0-12.307-7.80444a23.915,23.915,0,0,1-.90042-7.32465,23.17852,23.17852,0,0,1,.90042-7.14467,10.80045,10.80045,0,0,1,4.472-5.91336A14.15164,14.15164,0,0,1,444.84631,29.54873Z" transform="translate(-0.6048 -0.77305)"/><path class="cls-1" d="M459.98091,18.32211h9.06633a.53067.53067,0,0,1,.59961.60011V32.91075h.06016q2.34178-3.36151,7.50513-3.362a9.31322,9.31322,0,0,1,7.23441,3.00205,11.06485,11.06485,0,0,1,2.73133,7.74478V52.90339a.31855.31855,0,0,0,.361.36h2.4606a.53134.53134,0,0,1,.60061.60061v4.68256a.53093.53093,0,0,1-.60061.60061H477.512a.53093.53093,0,0,1-.60061-.60061V53.864a.53133.53133,0,0,1,.60061-.60061h2.58193a.31824.31824,0,0,0,.36-.36V41.85625a7.10177,7.10177,0,0,0-1.3807-4.59282,5.54785,5.54785,0,0,0-8.01451,0,6.99278,6.99278,0,0,0-1.41178,4.59282V52.90339a.31855.31855,0,0,0,.361.36h2.58093a.53134.53134,0,0,1,.60061.60061v4.68256a.53093.53093,0,0,1-.60061.60061H459.98091a.53023.53023,0,0,1-.59961-.60061V53.864a.53063.53063,0,0,1,.59961-.60061h2.58193a.31784.31784,0,0,0,.36-.36V24.56586a.3182.3182,0,0,0-.36-.36047h-2.58193a.52987.52987,0,0,1-.59961-.60011V18.92222A.53028.53028,0,0,1,459.98091,18.32211Z" transform="translate(-0.6048 -0.77305)"/><path class="cls-1" d="M180.4938,17.66134a22.70641,22.70641,0,0,1,7.11408,1.111,15.95286,15.95286,0,0,1,5.43358,2.85165,1.08022,1.08022,0,0,1,.42013.84025v7.20433a.53074.53074,0,0,1-.60061.60061h-5.4035a.53.53,0,0,1-.59961-.60061v-3.5425a.57375.57375,0,0,0-.24064-.48029,11.26215,11.26215,0,0,0-6.30392-1.62035q-6.60421,0-8.46471,5.46366a33.276,33.276,0,0,0-.96057,9.36513q0,6.7847.78009,9.2458a7.67944,7.67944,0,0,0,2.85165,3.99271,9.56442,9.56442,0,0,0,5.49374,1.35063q4.44141,0,6.66388-1.44087a1.08759,1.08759,0,0,0,.60061-.96057V43.05647a.31874.31874,0,0,0-.361-.36h-6.48339a.53035.53035,0,0,1-.60062-.60062V37.293a.53043.53043,0,0,1,.60062-.59961h13.08811a.53123.53123,0,0,1,.60061.59961V54.52424a1.674,1.674,0,0,1-.78109,1.44086q-5.34384,3.84282-13.44808,3.84231-12.06689,0-15.18976-9.54561-1.02123-3.06221-1.02074-11.4076,0-7.8646,1.14106-11.28729Q168.00478,17.66135,180.4938,17.66134Z" transform="translate(-0.6048 -0.77305)"/><path class="cls-1" d="M212.20989,29.54823a13.10684,13.10684,0,0,1,7.5653,2.13172,10.94672,10.94672,0,0,1,4.3226,5.8537,29.80548,29.80548,0,0,1,.96057,8.70536q0,.6001-.66077.60061H206.56675a.31764.31764,0,0,0-.36.36,6.38549,6.38549,0,0,0,.42013,2.221q1.49952,4.38426,6.4834,4.38275a8.736,8.736,0,0,0,6.7842-2.7614q.47979-.47979.90041-.12033l3.54251,3.12238a.54939.54939,0,0,1,.06016.84025q-4.20378,4.92421-11.88689,4.92321a13.44765,13.44765,0,0,1-7.7157-2.13172,10.88752,10.88752,0,0,1-4.35268-5.91286,23.11151,23.11151,0,0,1-1.01974-7.085,23.55009,23.55009,0,0,1,.96058-7.14417,10.74627,10.74627,0,0,1,4.35268-5.88378A13.15731,13.15731,0,0,1,212.20989,29.54823Zm.06016,5.7043q-4.44293,0-5.7033,3.722a7.75431,7.75431,0,0,0-.36,2.4616.318.318,0,0,0,.36.36h11.34644a.31874.31874,0,0,0,.361-.36,7.75337,7.75337,0,0,0-.361-2.4616,5.21783,5.21783,0,0,0-2.10063-2.73133A6.28347,6.28347,0,0,0,212.27005,35.25253Z" transform="translate(-0.6048 -0.77305)"/><path class="cls-1" d="M242.079,29.54823a13.26749,13.26749,0,0,1,7.53421,2.10164,10.751,10.751,0,0,1,4.35268,5.88378,23.22412,23.22412,0,0,1,.96058,7.14417,23.21064,23.21064,0,0,1-.96058,7.14417,10.74743,10.74743,0,0,1-4.35268,5.88378,14.66347,14.66347,0,0,1-15.12859,0A10.7427,10.7427,0,0,1,230.132,51.822a23.18061,23.18061,0,0,1-.96057-7.14417,23.19405,23.19405,0,0,1,.96057-7.14417,10.74627,10.74627,0,0,1,4.35268-5.88378A13.37193,13.37193,0,0,1,242.079,29.54823Zm0,6.00411q-4.26394,0-5.46366,3.78215a18.69261,18.69261,0,0,0-.60061,5.34333,18.30727,18.30727,0,0,0,.60061,5.34334,5.79408,5.79408,0,0,0,10.86716,0,18.34785,18.34785,0,0,0,.5996-5.34334,18.7343,18.7343,0,0,0-.5996-5.34333Q246.28081,35.55183,242.079,35.55234Z" transform="translate(-0.6048 -0.77305)"/><path class="cls-1" d="M275.73533,29.78887a13.29637,13.29637,0,0,1,2.82257.29981c.39907.08122.59961.28075.59961.60061v5.223q0,.7806-.71993.60061a23.50256,23.50256,0,0,0-3.54251-.48028q-6.48388,0-6.48439,7.445v9.42529a.31834.31834,0,0,0,.361.36h2.82157a.532.532,0,0,1,.60062.60062V58.546a.53114.53114,0,0,1-.60062.60061H258.74474a.53.53,0,0,1-.59961-.60061V53.86347a.53084.53084,0,0,1,.59961-.60062h2.58193a.31763.31763,0,0,0,.36-.36V36.45275a.318.318,0,0,0-.36-.36h-2.58193a.53.53,0,0,1-.59961-.60061V30.80961a.53043.53043,0,0,1,.59961-.60061h9.06633a.53083.53083,0,0,1,.59961.60061v3.00206h.06016A7.99146,7.99146,0,0,1,275.73533,29.78887Z" transform="translate(-0.6048 -0.77305)"/><path class="cls-1" d="M292.90567,29.54823q5.34234,0,7.50514,3.42218H300.47v-2.1608a.53114.53114,0,0,1,.60061-.60061h9.06633a.53082.53082,0,0,1,.5996.60061v4.68257a.53042.53042,0,0,1-.5996.60061H307.555a.318.318,0,0,0-.36.36V57.34581q0,6.3034-3.45226,9.78626-3.45327,3.48033-10.057,3.48234a15.88611,15.88611,0,0,1-5.973-1.17114,10.99907,10.99907,0,0,1-4.53316-3.15246.55273.55273,0,0,1,.06016-.84026l3.54251-3.5415a.54118.54118,0,0,1,.90041,0,8.90634,8.90634,0,0,0,6.30391,2.70125q6.4839,0,6.4834-6.90453V55.00453h-.05916q-2.16131,3.363-7.50514,3.362a10.3639,10.3639,0,0,1-6.18359-1.80083,10.10953,10.10953,0,0,1-3.66282-5.224,24.1137,24.1137,0,0,1-.96058-7.38381,23.88826,23.88826,0,0,1,.96058-7.32465Q285.34088,29.54924,292.90567,29.54823Zm1.74168,6.00411a4.90382,4.90382,0,0,0-5.1037,3.66182,14.7101,14.7101,0,0,0-.66077,4.74373,14.04466,14.04466,0,0,0,.66077,4.74272,5.4008,5.4008,0,0,0,10.26655,0,14.07274,14.07274,0,0,0,.65977-4.74272,14.74,14.74,0,0,0-.65977-4.74373A4.9437,4.9437,0,0,0,294.64735,35.55234Z" transform="translate(-0.6048 -0.77305)"/><path class="cls-1" d="M314.91974,30.209h9.06632a.53083.53083,0,0,1,.59961.60061V52.90289a.31834.31834,0,0,0,.361.36h2.58092a.53155.53155,0,0,1,.60062.60062V58.546a.53074.53074,0,0,1-.60062.60061H314.91974a.53.53,0,0,1-.59961-.60061V53.86347a.53083.53083,0,0,1,.59961-.60062h2.58193a.31763.31763,0,0,0,.36-.36V36.45275a.318.318,0,0,0-.36-.36h-2.58193a.53.53,0,0,1-.59961-.60061V30.80961A.53043.53043,0,0,1,314.91974,30.209Zm3.5425-11.88689h5.52382a.53052.53052,0,0,1,.59961.59961v5.224a.53012.53012,0,0,1-.59961.59961h-5.52382a.53043.53043,0,0,1-.60061-.59961v-5.224A.53083.53083,0,0,1,318.46224,18.32211Z" transform="translate(-0.6048 -0.77305)"/><path class="cls-1" d="M343.714,29.54823q6.54406,0,9.27589,2.34228,2.73132,2.34029,2.73133,7.74478v13.2676a.31834.31834,0,0,0,.361.36h2.58092a.53154.53154,0,0,1,.60061.60062V58.546a.53074.53074,0,0,1-.60061.60061h-8.585a.53073.53073,0,0,1-.60061-.60061V56.44539h-.06017q-2.34027,3.363-8.04458,3.362a10.45067,10.45067,0,0,1-6.93461-2.28112,8.11934,8.11934,0,0,1-2.73132-6.60472q0-4.62189,3.03213-6.9336,3.03063-2.31169,8.49479-2.3122h5.76347a.31834.31834,0,0,0,.361-.36V40.17474a5.03336,5.03336,0,0,0-1.29146-3.84231q-1.292-1.20023-4.65248-1.20022a13.86905,13.86905,0,0,0-3.12238.36.36941.36941,0,0,0-.2998.42012v2.58193a.53114.53114,0,0,1-.60062.60061h-5.223a.53074.53074,0,0,1-.60061-.60061V32.3708a.81165.81165,0,0,1,.48029-.78109A22.12527,22.12527,0,0,1,343.714,29.54823Zm5.28318,17.17107H344.3146q-6.18459,0-6.18359,3.96263,0,3.66233,4.92321,3.66182,6.30342,0,6.30391-4.9232V47.07926A.31874.31874,0,0,0,348.99717,46.7193Z" transform="translate(-0.6048 -0.77305)"/><path class="cls-1" d="M497.7216,53.26336h-.01274a2.88993,2.88993,0,1,0,.01274,0Zm0,5.42721a2.4883,2.4883,0,0,1-.01274-4.96942h.01274a2.48866,2.48866,0,0,1,0,4.96942Z" transform="translate(-0.6048 -0.77305)"/><path class="cls-1" d="M498.24387,56.303V56.2774a.81465.81465,0,0,0,.639-.796.78543.78543,0,0,0-.30036-.6786,1.71906,1.71906,0,0,0-1.017-.2473,5.71,5.71,0,0,0-.92658.07859v3.274h.52227V56.49821h.36508a.61225.61225,0,0,1,.70368.57549,2.41539,2.41539,0,0,0,.22215.83434h.54776a2.68086,2.68086,0,0,1-.20816-.809C498.72565,56.61709,498.53049,56.356,498.24387,56.303Zm-.70493-.20816h-.37783V54.9853a2.58243,2.58243,0,0,1,.37783-.02649c.58723,0,.79614.2879.79614.57552C498.33508,55.93765,497.97,56.09486,497.53894,56.09486Z" transform="translate(-0.6048 -0.77305)"/><path class="cls-1" d="M122.95133,82.583h-.01071a2.42854,2.42854,0,1,0,.01071,0Zm0,4.56072a2.091,2.091,0,0,1-.01071-4.176h.01071a2.09133,2.09133,0,0,1,0,4.176Z" transform="translate(-0.6048 -0.77305)"/><path class="cls-1" d="M123.39021,85.1374v-.02153a.68459.68459,0,0,0,.537-.66895.66.66,0,0,0-.25241-.57025,1.44457,1.44457,0,0,0-.85466-.20782,4.79682,4.79682,0,0,0-.77865.066v2.75127h.43888V85.30143h.3068a.5145.5145,0,0,1,.59133.48361,2.02963,2.02963,0,0,0,.18669.70113h.4603a2.25279,2.25279,0,0,1-.17493-.67982C123.79508,85.40133,123.63107,85.18192,123.39021,85.1374Zm-.59238-.17492h-.31751v-.93242a2.17026,2.17026,0,0,1,.31751-.02226c.49348,0,.669.24194.669.48364C123.46686,84.83037,123.16006,84.96248,122.79783,84.96248Z" transform="translate(-0.6048 -0.77305)"/></svg>