<svg id="Layer_1" data-name="Layer 1" xmlns="http://www.w3.org/2000/svg" width="0.12in" height="0.23in" viewBox="0 0 8.76 16.38"><defs><style>.cls-1{stroke:#fff;stroke-miterlimit:10;stroke-width:0.5px;}</style></defs><title>push-left-white-sm</title><path class="cls-1" d="M8.63,5.79H5c-.25,0-.45-.28-.45-.62V3.93c0-.34-.14-.42-.32-.18l-3,4.08a.82.82,0,0,0,0,.88l3,4.08c.17.24.32.16.32-.18V11.37c0-.34.21-.62.45-.62H8.63c.25,0,.45-.28.45-.62V6.41C9.08,6.07,8.88,5.79,8.63,5.79Z" transform="translate(-0.88 -0.14)"/><rect class="cls-1" x="6.13" y="0.25" width="2.37" height="15.88"/><rect x="5.66" y="5.84" width="1.87" height="4.6"/></svg>